<?xml version="1.0" standalone="no"?>
<!DOCTYPE svg PUBLIC "-//W3C//DTD SVG 20010904//EN"
 "http://www.w3.org/TR/2001/REC-SVG-20010904/DTD/svg10.dtd">
<svg version="1.0" xmlns="http://www.w3.org/2000/svg"
 width="500.000000pt" height="500.000000pt" viewBox="0 0 500.000000 500.000000"
 preserveAspectRatio="xMidYMid meet">
<metadata>
Created by potrace 1.14, written by Peter Selinger 2001-2017
</metadata>
<g transform="translate(0.000000,500.000000) scale(0.100000,-0.100000)"
fill="#000000" stroke="none">
<path d="M3424 2106 c-62 -28 -90 -81 -78 -146 9 -44 48 -76 118 -100 83 -27
106 -45 106 -79 0 -37 -28 -61 -71 -61 -43 0 -81 25 -121 80 -36 49 -43 42
-34 -33 7 -50 8 -52 39 -53 18 -1 59 -3 92 -5 103 -5 155 41 155 135 0 67 -32
98 -131 131 -93 31 -114 56 -85 100 34 51 126 24 165 -49 20 -37 31 -32 30 12
-1 49 -10 67 -34 68 -11 1 -42 4 -70 8 -34 4 -60 2 -81 -8z"/>
<path d="M883 2103 c15 -4 17 -22 17 -193 0 -171 -2 -189 -17 -193 -10 -3 25
-5 77 -5 52 0 87 2 78 5 -16 4 -18 17 -18 99 l0 94 55 0 55 0 0 -94 c0 -90 -1
-95 -22 -99 -13 -2 20 -4 72 -4 52 -1 87 1 78 4 -16 4 -18 22 -18 193 0 171 2
189 18 193 9 3 -26 5 -78 4 -52 0 -85 -2 -72 -4 21 -4 22 -9 22 -94 l0 -89
-55 0 -55 0 0 89 c0 77 2 90 18 94 9 3 -26 5 -78 5 -52 0 -87 -2 -77 -5z"/>
<path d="M1485 1919 c-52 -141 -75 -193 -90 -199 -14 -6 -6 -9 30 -8 28 0 40
3 28 5 -28 5 -28 0 -2 68 l20 55 59 0 58 0 20 -59 20 -60 -21 -4 c-12 -2 21
-5 73 -5 60 -1 89 2 80 8 -9 4 -47 94 -85 199 -66 180 -71 191 -95 191 -25 0
-30 -11 -95 -191z m47 -57 c-24 -2 -46 -1 -48 1 -4 4 5 31 41 122 6 16 12 6
29 -50 l22 -70 -44 -3z"/>
<path d="M1898 2103 c22 -4 22 -6 22 -193 0 -188 0 -189 -22 -193 -13 -2 22
-4 77 -4 55 0 90 2 78 4 -22 4 -23 9 -23 99 0 91 1 94 23 94 37 0 47 -19 47
-91 0 -88 18 -112 83 -113 53 -1 73 13 81 59 l6 30 -11 -27 c-19 -48 -39 -35
-39 25 0 60 -16 97 -48 113 -23 11 -23 11 8 24 17 7 35 21 40 31 18 33 11 86
-14 116 l-24 28 -154 2 c-84 1 -143 -1 -130 -4z m196 -19 c20 -19 22 -113 4
-137 -7 -9 -25 -19 -40 -23 l-28 -6 0 91 c0 90 0 91 24 91 14 0 32 -7 40 -16z"/>
<path d="M2390 2104 c9 -3 44 -83 88 -204 68 -184 76 -200 98 -200 13 0 24 1
24 3 0 23 135 385 147 395 14 10 10 12 -28 11 -24 -1 -34 -4 -21 -6 12 -2 22
-5 22 -6 0 -1 -22 -65 -49 -142 -28 -79 -52 -133 -55 -125 -14 35 -86 255 -86
261 0 4 10 10 23 12 12 2 -23 4 -78 4 -55 1 -93 -1 -85 -3z"/>
<path d="M2888 2103 c22 -4 22 -5 22 -193 0 -188 0 -189 -22 -193 -13 -2 50
-5 140 -6 l162 -1 -1 63 c0 52 -2 59 -12 43 -42 -64 -86 -96 -137 -96 -19 0
-20 6 -20 95 0 74 3 95 14 95 19 0 66 -39 66 -55 0 -8 5 -17 10 -20 6 -4 10
26 10 82 -1 86 -1 87 -16 58 -19 -36 -42 -55 -66 -55 -16 0 -18 10 -18 90 0
84 1 90 20 90 42 0 90 -29 107 -64 28 -60 40 -44 27 37 l-7 37 -151 -1 c-83
-1 -141 -4 -128 -6z"/>
<path d="M3775 2077 c-4 -18 -5 -51 -3 -72 l3 -40 24 53 c23 51 52 82 78 82
10 0 13 -42 13 -189 l0 -190 -27 -4 c-16 -2 22 -4 82 -4 61 0 98 2 83 4 l-28
4 0 190 c0 147 3 189 13 189 26 0 55 -31 78 -82 l24 -53 3 59 c2 32 1 65 -2
72 -4 11 -40 14 -170 14 l-165 0 -6 -33z"/>
</g>
</svg>
